<?xml version="1.0" encoding="UTF-8"?>
<svg width="199px" height="148px" viewBox="0 0 199 148" version="1.1" xmlns="http://www.w3.org/2000/svg" xmlns:xlink="http://www.w3.org/1999/xlink">
    <!-- Generator: Sketch 51.3 (57544) - http://www.bohemiancoding.com/sketch -->
    <title>Slice 2</title>
    <desc>Created with Sketch.</desc>
    <defs>
        <filter x="-3.9%" y="-3.9%" width="107.8%" height="110.9%" filterUnits="objectBoundingBox" id="filter-1">
            <feOffset dx="0" dy="2" in="SourceAlpha" result="shadowOffsetOuter1"></feOffset>
            <feGaussianBlur stdDeviation="2" in="shadowOffsetOuter1" result="shadowBlurOuter1"></feGaussianBlur>
            <feColorMatrix values="0 0 0 0 0   0 0 0 0 0   0 0 0 0 0  0 0 0 0.5 0" type="matrix" in="shadowBlurOuter1" result="shadowMatrixOuter1"></feColorMatrix>
            <feMerge>
                <feMergeNode in="shadowMatrixOuter1"></feMergeNode>
                <feMergeNode in="SourceGraphic"></feMergeNode>
            </feMerge>
        </filter>
    </defs>
    <g id="Page-1" stroke="none" stroke-width="1" fill="none" fill-rule="evenodd">
        <rect id="Rectangle-9" fill="#FFFFFF" x="-290" y="-472" width="1269" height="683"></rect>
        <g id="Labels" transform="translate(-54.000000, -299.000000)"></g>
        <g id="Client" filter="url(#filter-1)" transform="translate(6.000000, 10.000000)">
            <path d="M0.5,122.5 L0.5,126.816695 L0.514958182,126.874268 C0.60559772,127.223132 1.14576777,127.5 2.03643729,127.5 L177.509006,127.5 C178.399675,127.5 178.939846,127.223131 179.030488,126.874266 L179.127729,126.5 L179.5,126.5 L179.5,122.5 L176.56356,122.5 L150.57733,80.262002 C149.984709,79.2987562 148.694532,78.5 147.772721,78.5 L31.7727214,78.5 C30.8509112,78.5 29.5607334,79.2987562 28.9681124,80.262002 L2.98188253,122.5 L0.5,122.5 Z" id="Combined-Shape" stroke="#979797" fill="#D8D8D8"></path>
            <rect id="Rectangle-5" stroke="#979797" fill="#D8D8D8" x="30.5" y="0.5" width="119" height="72" rx="2"></rect>
            <rect id="Rectangle-5" stroke="#979797" fill="#4A4A4A" x="34.5" y="3.5" width="111" height="65" rx="2"></rect>
            <path d="M31.7727214,73.5 C30.8509112,73.5 29.5607334,74.2987562 28.9681124,75.262002 L0.667372994,121.262002 C0.231214955,121.970933 0.706032032,122.5 2.03643729,122.5 L177.509006,122.5 C178.839411,122.5 179.314228,121.970933 178.87807,121.262002 L150.57733,75.262002 C149.984709,74.2987562 148.694532,73.5 147.772721,73.5 L31.7727214,73.5 Z" id="Rectangle-5" stroke="#979797" fill="#D8D8D8"></path>
            <g id="KEYBOARD" transform="translate(34.000000, 75.000000)" fill="#727272">
                <path d="M97.6307669,11.8559322 L98.9148422,15.8079096 L90.7420378,15.8079096 L90.0451976,11.8559322 L97.6307669,11.8559322 Z M98.6696056,11.8559322 L107.160255,11.8559322 L109.158737,15.8079096 L99.9536809,15.8079096 L98.6696056,11.8559322 Z M100.926774,22 L91.8338704,22 L90.9162479,16.795904 L99.235861,16.795904 L100.926774,22 Z M101.965613,22 L100.2747,16.795904 L109.658358,16.795904 L111.849343,21.1285562 C112.273256,21.6098413 111.771964,22 110.729675,22 L101.965613,22 Z M96.3466916,7.90395481 L97.309748,10.8679379 L89.8709875,10.8679379 L89.3483573,7.90395481 L96.3466916,7.90395481 Z M97.3855303,7.90395481 L105.161774,7.90395481 L106.660635,10.8679379 L98.3485868,10.8679379 L97.3855303,7.90395481 Z M95.0626163,3.95197741 L96.0256727,6.91596046 L89.1741473,6.91596046 L88.6515171,3.95197741 L95.0626163,3.95197741 Z M96.101455,3.95197741 L103.163292,3.95197741 L104.662153,6.91596046 L97.0645115,6.91596046 L96.101455,3.95197741 Z M93.826137,0.146485527 L94.7415974,2.96398305 L88.477307,2.96398305 L87.992394,0.213904503 L92.1802555,0.213904503 C92.3521126,0.213904503 92.9775286,0.183963683 93.826137,0.146485527 Z M94.8507861,0.102814192 C97.4429692,-0.00268812958 100.994017,-0.102813273 101.27298,0.213904503 L102.663671,2.96398305 L95.7804362,2.96398305 L94.8507861,0.102814192 Z M89.0419618,11.8559322 L89.7388021,15.8079096 L81.8989363,15.8079096 L81.4835667,11.8559322 L89.0419618,11.8559322 Z M90.8306347,22 L82.5497512,22 L82.0027786,16.795904 L89.9130121,16.795904 L90.8306347,22 Z M88.3451216,7.90395481 L88.8677518,10.8679379 L81.3797243,10.8679379 L81.0681971,7.90395481 L88.3451216,7.90395481 Z M87.6482813,3.95197741 L88.1709115,6.91596046 L80.9643547,6.91596046 L80.6528276,3.95197741 L87.6482813,3.95197741 Z M86.9891582,0.213904503 L87.4740713,2.96398305 L80.5489852,2.96398305 L80.2599403,0.213904503 L86.9891582,0.213904503 Z M80.4901302,11.8559322 L80.9054998,15.8079096 L74.0005714,15.8079096 L73.7242222,11.8559322 L80.4901302,11.8559322 Z M81.5563147,22 L74.4335645,22 L74.0696586,16.795904 L81.0093421,16.795904 L81.5563147,22 Z M80.0747606,7.90395481 L80.3862878,10.8679379 L73.6551349,10.8679379 L73.447873,7.90395481 L80.0747606,7.90395481 Z M79.6593911,3.95197741 L79.9709182,6.91596046 L73.3787857,6.91596046 L73.1715238,3.95197741 L79.6593911,3.95197741 Z M79.2665038,0.213904503 L79.5555487,2.96398305 L73.1024365,2.96398305 L72.9101323,0.213904503 L79.2665038,0.213904503 Z M72.7338152,11.8559322 L73.0101644,15.8079096 L66.8820528,15.8079096 L66.8130707,11.8559322 L72.7338152,11.8559322 Z M73.4431576,22 L36.3795777,22 L37.2038255,16.795904 L44.1826497,16.795904 L44.1718058,17.0028161 L45.1584462,17.0545237 L45.1719999,16.795904 L51.7299739,16.795904 L51.7299739,17.1218615 L52.7179682,17.1218615 L52.7179682,16.795904 L58.9111534,16.795904 L58.9168127,17.1201262 L59.9046566,17.1028833 L59.8992983,16.795904 L65.9111534,16.795904 L65.9168127,17.1201262 L66.9046566,17.1028833 L66.8992983,16.795904 L73.0792517,16.795904 L73.4431576,22 Z M72.4574661,7.90395481 L72.6647279,10.8679379 L66.7958252,10.8679379 L66.7440887,7.90395481 L72.4574661,7.90395481 Z M72.1811169,3.95197741 L72.3883788,6.91596046 L66.7268432,6.91596046 L66.6751067,3.95197741 L72.1811169,3.95197741 Z M71.9197254,0.213904503 L72.1120296,2.96398305 L66.6578612,2.96398305 L66.6098584,0.213904503 L71.9197254,0.213904503 Z M65.8249259,11.8559322 L65.8939079,15.8079096 L59.8820528,15.8079096 L59.8130707,11.8559322 L65.8249259,11.8559322 Z M65.7559439,7.90395481 L65.8076804,10.8679379 L59.7958252,10.8679379 L59.7440887,7.90395481 L65.7559439,7.90395481 Z M65.6869619,3.95197741 L65.7386984,6.91596046 L59.7268432,6.91596046 L59.6751067,3.95197741 L65.6869619,3.95197741 Z M65.6217135,0.213904503 L65.6697163,2.96398305 L59.6578612,2.96398305 L59.6098584,0.213904503 L65.6217135,0.213904503 Z M58.8249259,11.8559322 L58.8939079,15.8079096 L52.7179682,15.8079096 L52.7179682,11.8559322 L58.8249259,11.8559322 Z M58.7559439,7.90395481 L58.8076804,10.8679379 L52.7179682,10.8679379 L52.7179682,7.90395481 L58.7559439,7.90395481 Z M58.6869619,3.95197741 L58.7386984,6.91596046 L52.7179682,6.91596046 L52.7179682,3.95197741 L58.6869619,3.95197741 Z M58.6217135,0.213904503 L58.6697163,2.96398305 L52.7179682,2.96398305 L52.7179682,0.213904503 L58.6217135,0.213904503 Z M51.7299739,11.8559322 L51.7299739,15.8079096 L45.2237785,15.8079096 L45.4308928,11.8559322 L51.7299739,11.8559322 Z M51.7299739,7.90395481 L51.7299739,10.8679379 L45.4826714,10.8679379 L45.6380072,7.90395481 L51.7299739,7.90395481 Z M51.7299739,3.95197741 L51.7299739,6.91596046 L45.6897858,6.91596046 L45.8451215,3.95197741 L51.7299739,3.95197741 Z M51.7299739,0.213904503 L51.7299739,2.96398305 L45.8969001,2.96398305 L46.0410256,0.213904503 L51.7299739,0.213904503 Z M44.4415426,11.8559322 L44.2344282,15.8079096 L37.3603084,15.8079096 L37.9862402,11.8559322 L44.4415426,11.8559322 Z M44.648657,7.90395481 L44.4933212,10.8679379 L38.1427231,10.8679379 L38.6121719,7.90395481 L44.648657,7.90395481 Z M44.8557713,3.95197741 L44.7004356,6.91596046 L38.7686548,6.91596046 L39.2381036,3.95197741 L44.8557713,3.95197741 Z M45.0516754,0.213904503 L44.9075499,2.96398305 L39.3945866,2.96398305 L39.8301562,0.213904503 L45.0516754,0.213904503 Z M36.9859303,11.8559322 L36.3599986,15.8079096 L29.0446071,15.8079096 L30.1035362,11.8559322 L36.9859303,11.8559322 Z M35.3792678,22 L27.3854415,22 L28.7798748,16.795904 L36.2035157,16.795904 L35.3792678,22 Z M37.6118621,7.90395481 L37.1424133,10.8679379 L30.3682685,10.8679379 L31.1624654,7.90395481 L37.6118621,7.90395481 Z M38.2377938,3.95197741 L37.768345,6.91596046 L31.4271977,6.91596046 L32.2213946,3.95197741 L38.2377938,3.95197741 Z M38.8298464,0.213904503 L38.3942767,2.96398305 L32.4861268,2.96398305 L33.2230082,0.213904503 L38.8298464,0.213904503 Z M29.0806892,11.8559322 L28.0217601,15.8079096 L20.6004911,15.8079096 L22.1175131,11.8559322 L29.0806892,11.8559322 Z M26.3625945,22 L18.2235703,22 L20.2212356,16.795904 L27.7570278,16.795904 L26.3625945,22 Z M30.1396184,7.90395481 L29.3454215,10.8679379 L22.4967686,10.8679379 L23.634535,7.90395481 L30.1396184,7.90395481 Z M31.1985475,3.95197741 L30.4043507,6.91596046 L24.0137905,6.91596046 L25.151557,3.95197741 L31.1985475,3.95197741 Z M32.2001612,0.213904503 L31.4632798,2.96398305 L25.5308125,2.96398305 L26.5864688,0.213904503 L32.2001612,0.213904503 Z M21.0592279,11.8559322 L19.5422059,15.8079096 L12.865451,15.8079096 L14.7082883,11.8559322 L21.0592279,11.8559322 Z M17.1652851,22 L9.97803182,22 L12.4047416,16.795904 L19.1629504,16.795904 L17.1652851,22 Z M22.5762498,7.90395481 L21.4384833,10.8679379 L15.1689976,10.8679379 L16.5511256,7.90395481 L22.5762498,7.90395481 Z M24.0932718,3.95197741 L22.9555053,6.91596046 L17.011835,6.91596046 L18.393963,3.95197741 L24.0932718,3.95197741 Z M25.5281836,0.213904503 L24.4725273,2.96398305 L18.8546723,2.96398305 L20.137055,0.213904503 L25.5281836,0.213904503 Z M13.6181572,11.8559322 L11.7753198,15.8079096 L3,15.8079096 L3,16.795904 L11.3146105,16.795904 L8.88790067,22 L1.27032451,22 C0.228036054,22 -0.273256378,21.6098413 0.150656522,21.1285562 L4.96400825,11.8559322 L13.6181572,11.8559322 Z M15.4609945,7.90395481 L14.0788665,10.8679379 L5.47686894,10.8679379 L7.015451,7.90395481 L15.4609945,7.90395481 Z M17.3038318,3.95197741 L15.9217038,6.91596046 L7.52831169,6.91596046 L9.06689376,3.95197741 L17.3038318,3.95197741 Z M19.0603157,0.185185461 L17.7645411,2.96398305 L9.57975445,2.96398305 L11.0073002,0.213904503 C11.3662411,-0.193615271 16.9414601,0.088985448 19.0603157,0.185185461 Z" id="Combined-Shape"></path>
            </g>
            <path d="M64.9045939,98.5 C64.0180769,98.5 63.004992,99.255621 62.6964116,100.161262 L56.563244,118.161262 C56.3094476,118.906119 56.8658554,119.5 57.9637664,119.5 L121.845421,119.5 C122.943333,119.5 123.49974,118.906119 123.245944,118.161262 L117.112776,100.161262 C116.804196,99.255621 115.791111,98.5 114.904594,98.5 L64.9045939,98.5 Z" id="Rectangle-7" stroke="#979797" fill="#D8D8D8"></path>
        </g>
    </g>
</svg>