<?xml version="1.0" encoding="UTF-8"?>
<svg width="35px" height="33px" viewBox="0 0 35 33" version="1.1" xmlns="http://www.w3.org/2000/svg" xmlns:xlink="http://www.w3.org/1999/xlink">
    <!-- Generator: Sketch 51.3 (57544) - http://www.bohemiancoding.com/sketch -->
    <title>GitHub-Mark</title>
    <desc>Created with Sketch.</desc>
    <defs></defs>
    <g id="Page-1" stroke="none" stroke-width="1" fill="none" fill-rule="evenodd">
        <g id="GitHub-Mark" transform="translate(-135.000000, -55.000000)" fill="#161514">
            <path d="M152.288,56 C143.294,56 136,63.293 136,72.29 C136,79.487 140.667,85.592 147.14,87.746 C147.955,87.896 148.252,87.393 148.252,86.961 C148.252,86.575 148.238,85.55 148.23,84.191 C143.699,85.175 142.743,82.007 142.743,82.007 C142.002,80.125 140.934,79.624 140.934,79.624 C139.455,78.614 141.046,78.634 141.046,78.634 C142.681,78.749 143.541,80.313 143.541,80.313 C144.994,82.802 147.354,82.083 148.282,81.666 C148.43,80.614 148.851,79.896 149.316,79.489 C145.699,79.078 141.896,77.68 141.896,71.438 C141.896,69.66 142.531,68.205 143.573,67.067 C143.405,66.655 142.846,64.998 143.733,62.756 C143.733,62.756 145.1,62.318 148.212,64.426 C149.511,64.064 150.905,63.884 152.29,63.877 C153.674,63.884 155.067,64.064 156.368,64.426 C159.478,62.318 160.843,62.756 160.843,62.756 C161.732,64.998 161.173,66.655 161.006,67.067 C162.05,68.205 162.68,69.66 162.68,71.438 C162.68,77.696 158.871,79.073 155.243,79.476 C155.827,79.979 156.348,80.973 156.348,82.493 C156.348,84.67 156.328,86.427 156.328,86.961 C156.328,87.397 156.622,87.904 157.448,87.745 C163.916,85.586 168.579,79.485 168.579,72.29 C168.579,63.293 161.285,56 152.288,56" id="Fill-4"></path>
        </g>
    </g>
</svg>